<mxfile host="app.diagrams.net" modified="2023-12-06T20:07:32.684Z" agent="Mozilla/5.0 (Windows NT 10.0; Win64; x64) AppleWebKit/537.36 (KHTML, like Gecko) Chrome/119.0.0.0 Safari/537.36" etag="v023twE0u-7mSmDQDaO9" version="22.1.7" type="github">
  <diagram id="R2lEEEUBdFMjLlhIrx00" name="Page-1">
    <mxGraphModel dx="1050" dy="522" grid="1" gridSize="10" guides="1" tooltips="1" connect="1" arrows="1" fold="1" page="1" pageScale="1" pageWidth="850" pageHeight="1100" math="0" shadow="0" extFonts="Permanent Marker^https://fonts.googleapis.com/css?family=Permanent+Marker">
      <root>
        <mxCell id="0" />
        <mxCell id="1" parent="0" />
        <mxCell id="Edilqx2-JXnwH8jW_r8P-4" value="Roles" style="rounded=0;whiteSpace=wrap;html=1;" vertex="1" parent="1">
          <mxGeometry x="140" y="110" width="100" height="40" as="geometry" />
        </mxCell>
        <mxCell id="Edilqx2-JXnwH8jW_r8P-7" value="&lt;u&gt;id&lt;/u&gt;" style="ellipse;whiteSpace=wrap;html=1;" vertex="1" parent="1">
          <mxGeometry x="60" y="290" width="60" height="40" as="geometry" />
        </mxCell>
        <mxCell id="Edilqx2-JXnwH8jW_r8P-8" value="name" style="ellipse;whiteSpace=wrap;html=1;" vertex="1" parent="1">
          <mxGeometry x="50" y="340" width="60" height="40" as="geometry" />
        </mxCell>
        <mxCell id="Edilqx2-JXnwH8jW_r8P-11" value="is completed" style="ellipse;whiteSpace=wrap;html=1;" vertex="1" parent="1">
          <mxGeometry x="671" y="25" width="80" height="50" as="geometry" />
        </mxCell>
        <mxCell id="Edilqx2-JXnwH8jW_r8P-12" value="&lt;u&gt;id&lt;/u&gt;" style="ellipse;whiteSpace=wrap;html=1;" vertex="1" parent="1">
          <mxGeometry x="526" y="30" width="60" height="40" as="geometry" />
        </mxCell>
        <mxCell id="Edilqx2-JXnwH8jW_r8P-13" value="Job" style="rounded=0;whiteSpace=wrap;html=1;" vertex="1" parent="1">
          <mxGeometry x="580" y="100" width="100" height="40" as="geometry" />
        </mxCell>
        <mxCell id="Edilqx2-JXnwH8jW_r8P-15" value="job_date" style="ellipse;whiteSpace=wrap;html=1;" vertex="1" parent="1">
          <mxGeometry x="599" y="30" width="60" height="40" as="geometry" />
        </mxCell>
        <mxCell id="Edilqx2-JXnwH8jW_r8P-18" value="New" style="rounded=0;whiteSpace=wrap;html=1;" vertex="1" parent="1">
          <mxGeometry x="580" y="340" width="100" height="40" as="geometry" />
        </mxCell>
        <mxCell id="Edilqx2-JXnwH8jW_r8P-19" value="Admin" style="rounded=0;whiteSpace=wrap;html=1;" vertex="1" parent="1">
          <mxGeometry x="140" y="340" width="100" height="40" as="geometry" />
        </mxCell>
        <mxCell id="Edilqx2-JXnwH8jW_r8P-21" value="&lt;u&gt;id&lt;/u&gt;" style="ellipse;whiteSpace=wrap;html=1;" vertex="1" parent="1">
          <mxGeometry x="530" y="400" width="60" height="40" as="geometry" />
        </mxCell>
        <mxCell id="Edilqx2-JXnwH8jW_r8P-22" value="original news" style="ellipse;whiteSpace=wrap;html=1;" vertex="1" parent="1">
          <mxGeometry x="600" y="400" width="60" height="40" as="geometry" />
        </mxCell>
        <mxCell id="Edilqx2-JXnwH8jW_r8P-23" value="paraphrased news" style="ellipse;whiteSpace=wrap;html=1;" vertex="1" parent="1">
          <mxGeometry x="670" y="390" width="80" height="60" as="geometry" />
        </mxCell>
        <mxCell id="Edilqx2-JXnwH8jW_r8P-25" value="New_Status" style="rounded=0;whiteSpace=wrap;html=1;" vertex="1" parent="1">
          <mxGeometry x="370" y="190" width="100" height="40" as="geometry" />
        </mxCell>
        <mxCell id="Edilqx2-JXnwH8jW_r8P-26" value="Has a" style="rhombus;whiteSpace=wrap;html=1;" vertex="1" parent="1">
          <mxGeometry x="150" y="190" width="80" height="80" as="geometry" />
        </mxCell>
        <mxCell id="Edilqx2-JXnwH8jW_r8P-27" value="post by" style="rhombus;whiteSpace=wrap;html=1;" vertex="1" parent="1">
          <mxGeometry x="589" y="188" width="80" height="80" as="geometry" />
        </mxCell>
        <mxCell id="Edilqx2-JXnwH8jW_r8P-40" value="adress" style="ellipse;whiteSpace=wrap;html=1;" vertex="1" parent="1">
          <mxGeometry x="270" y="390" width="60" height="40" as="geometry" />
        </mxCell>
        <mxCell id="Edilqx2-JXnwH8jW_r8P-42" value="email" style="ellipse;whiteSpace=wrap;html=1;" vertex="1" parent="1">
          <mxGeometry x="280" y="340" width="60" height="40" as="geometry" />
        </mxCell>
        <mxCell id="Edilqx2-JXnwH8jW_r8P-47" value="Phone number" style="ellipse;whiteSpace=wrap;html=1;" vertex="1" parent="1">
          <mxGeometry x="160" y="400" width="60" height="40" as="geometry" />
        </mxCell>
        <mxCell id="Edilqx2-JXnwH8jW_r8P-49" value="Age" style="ellipse;whiteSpace=wrap;html=1;" vertex="1" parent="1">
          <mxGeometry x="60" y="395" width="60" height="40" as="geometry" />
        </mxCell>
        <mxCell id="Edilqx2-JXnwH8jW_r8P-51" value="&lt;u&gt;id&lt;/u&gt;" style="ellipse;whiteSpace=wrap;html=1;" vertex="1" parent="1">
          <mxGeometry x="130" y="40" width="60" height="40" as="geometry" />
        </mxCell>
        <mxCell id="Edilqx2-JXnwH8jW_r8P-52" value="name" style="ellipse;whiteSpace=wrap;html=1;" vertex="1" parent="1">
          <mxGeometry x="210" y="40" width="60" height="40" as="geometry" />
        </mxCell>
        <mxCell id="Edilqx2-JXnwH8jW_r8P-54" value="" style="endArrow=none;html=1;rounded=0;exitX=1;exitY=0.5;exitDx=0;exitDy=0;entryX=0;entryY=0.5;entryDx=0;entryDy=0;" edge="1" parent="1" source="Edilqx2-JXnwH8jW_r8P-19" target="Edilqx2-JXnwH8jW_r8P-42">
          <mxGeometry width="50" height="50" relative="1" as="geometry">
            <mxPoint x="360" y="250" as="sourcePoint" />
            <mxPoint x="410" y="200" as="targetPoint" />
          </mxGeometry>
        </mxCell>
        <mxCell id="Edilqx2-JXnwH8jW_r8P-56" value="" style="endArrow=none;html=1;rounded=0;exitX=1;exitY=0.75;exitDx=0;exitDy=0;entryX=0;entryY=0;entryDx=0;entryDy=0;" edge="1" parent="1" source="Edilqx2-JXnwH8jW_r8P-19" target="Edilqx2-JXnwH8jW_r8P-40">
          <mxGeometry width="50" height="50" relative="1" as="geometry">
            <mxPoint x="250" y="370" as="sourcePoint" />
            <mxPoint x="290" y="370" as="targetPoint" />
          </mxGeometry>
        </mxCell>
        <mxCell id="Edilqx2-JXnwH8jW_r8P-57" value="" style="endArrow=none;html=1;rounded=0;exitX=0.5;exitY=1;exitDx=0;exitDy=0;" edge="1" parent="1" source="Edilqx2-JXnwH8jW_r8P-19" target="Edilqx2-JXnwH8jW_r8P-47">
          <mxGeometry width="50" height="50" relative="1" as="geometry">
            <mxPoint x="260" y="380" as="sourcePoint" />
            <mxPoint x="300" y="380" as="targetPoint" />
          </mxGeometry>
        </mxCell>
        <mxCell id="Edilqx2-JXnwH8jW_r8P-58" value="" style="endArrow=none;html=1;rounded=0;exitX=1;exitY=0.5;exitDx=0;exitDy=0;entryX=0;entryY=0.5;entryDx=0;entryDy=0;" edge="1" parent="1" source="Edilqx2-JXnwH8jW_r8P-8" target="Edilqx2-JXnwH8jW_r8P-19">
          <mxGeometry width="50" height="50" relative="1" as="geometry">
            <mxPoint x="100" y="379" as="sourcePoint" />
            <mxPoint x="140" y="379.5" as="targetPoint" />
          </mxGeometry>
        </mxCell>
        <mxCell id="Edilqx2-JXnwH8jW_r8P-59" value="" style="endArrow=none;html=1;rounded=0;exitX=1;exitY=1;exitDx=0;exitDy=0;entryX=0;entryY=0;entryDx=0;entryDy=0;" edge="1" parent="1" source="Edilqx2-JXnwH8jW_r8P-7" target="Edilqx2-JXnwH8jW_r8P-19">
          <mxGeometry width="50" height="50" relative="1" as="geometry">
            <mxPoint x="120" y="329" as="sourcePoint" />
            <mxPoint x="160" y="329" as="targetPoint" />
          </mxGeometry>
        </mxCell>
        <mxCell id="Edilqx2-JXnwH8jW_r8P-60" value="" style="endArrow=none;html=1;rounded=0;exitX=1;exitY=0;exitDx=0;exitDy=0;entryX=0;entryY=0.75;entryDx=0;entryDy=0;" edge="1" parent="1" source="Edilqx2-JXnwH8jW_r8P-49" target="Edilqx2-JXnwH8jW_r8P-19">
          <mxGeometry width="50" height="50" relative="1" as="geometry">
            <mxPoint x="230" y="435" as="sourcePoint" />
            <mxPoint x="270" y="435" as="targetPoint" />
          </mxGeometry>
        </mxCell>
        <mxCell id="Edilqx2-JXnwH8jW_r8P-61" value="" style="endArrow=none;html=1;rounded=0;exitX=0;exitY=0.75;exitDx=0;exitDy=0;entryX=0.5;entryY=0;entryDx=0;entryDy=0;" edge="1" parent="1" source="Edilqx2-JXnwH8jW_r8P-18" target="Edilqx2-JXnwH8jW_r8P-21">
          <mxGeometry width="50" height="50" relative="1" as="geometry">
            <mxPoint x="300" y="470" as="sourcePoint" />
            <mxPoint x="340" y="470" as="targetPoint" />
          </mxGeometry>
        </mxCell>
        <mxCell id="Edilqx2-JXnwH8jW_r8P-62" value="" style="endArrow=none;html=1;rounded=0;exitX=0.5;exitY=0;exitDx=0;exitDy=0;entryX=0.5;entryY=1;entryDx=0;entryDy=0;" edge="1" parent="1" source="Edilqx2-JXnwH8jW_r8P-22" target="Edilqx2-JXnwH8jW_r8P-18">
          <mxGeometry width="50" height="50" relative="1" as="geometry">
            <mxPoint x="310" y="480" as="sourcePoint" />
            <mxPoint x="350" y="480" as="targetPoint" />
          </mxGeometry>
        </mxCell>
        <mxCell id="Edilqx2-JXnwH8jW_r8P-63" value="" style="endArrow=none;html=1;rounded=0;exitX=1;exitY=1;exitDx=0;exitDy=0;entryX=0.5;entryY=0;entryDx=0;entryDy=0;" edge="1" parent="1" source="Edilqx2-JXnwH8jW_r8P-18" target="Edilqx2-JXnwH8jW_r8P-23">
          <mxGeometry width="50" height="50" relative="1" as="geometry">
            <mxPoint x="320" y="490" as="sourcePoint" />
            <mxPoint x="350" y="490" as="targetPoint" />
          </mxGeometry>
        </mxCell>
        <mxCell id="Edilqx2-JXnwH8jW_r8P-64" value="" style="endArrow=none;html=1;rounded=0;exitX=0.62;exitY=0.96;exitDx=0;exitDy=0;entryX=0;entryY=0;entryDx=0;entryDy=0;exitPerimeter=0;" edge="1" parent="1" source="Edilqx2-JXnwH8jW_r8P-12" target="Edilqx2-JXnwH8jW_r8P-13">
          <mxGeometry width="50" height="50" relative="1" as="geometry">
            <mxPoint x="330" y="450" as="sourcePoint" />
            <mxPoint x="370" y="450" as="targetPoint" />
          </mxGeometry>
        </mxCell>
        <mxCell id="Edilqx2-JXnwH8jW_r8P-66" value="" style="endArrow=none;html=1;rounded=0;exitX=0.5;exitY=0;exitDx=0;exitDy=0;entryX=0.5;entryY=1;entryDx=0;entryDy=0;" edge="1" parent="1" source="Edilqx2-JXnwH8jW_r8P-13" target="Edilqx2-JXnwH8jW_r8P-15">
          <mxGeometry width="50" height="50" relative="1" as="geometry">
            <mxPoint x="340" y="460" as="sourcePoint" />
            <mxPoint x="380" y="460" as="targetPoint" />
          </mxGeometry>
        </mxCell>
        <mxCell id="Edilqx2-JXnwH8jW_r8P-67" value="" style="endArrow=none;html=1;rounded=0;exitX=0.5;exitY=1;exitDx=0;exitDy=0;entryX=0.25;entryY=0;entryDx=0;entryDy=0;" edge="1" parent="1" source="Edilqx2-JXnwH8jW_r8P-51" target="Edilqx2-JXnwH8jW_r8P-4">
          <mxGeometry width="50" height="50" relative="1" as="geometry">
            <mxPoint x="405" y="75" as="sourcePoint" />
            <mxPoint x="445" y="75" as="targetPoint" />
          </mxGeometry>
        </mxCell>
        <mxCell id="Edilqx2-JXnwH8jW_r8P-68" value="" style="endArrow=none;html=1;rounded=0;exitX=0.75;exitY=0;exitDx=0;exitDy=0;entryX=0.5;entryY=1;entryDx=0;entryDy=0;" edge="1" parent="1" source="Edilqx2-JXnwH8jW_r8P-4" target="Edilqx2-JXnwH8jW_r8P-52">
          <mxGeometry width="50" height="50" relative="1" as="geometry">
            <mxPoint x="415" y="85" as="sourcePoint" />
            <mxPoint x="455" y="85" as="targetPoint" />
          </mxGeometry>
        </mxCell>
        <mxCell id="Edilqx2-JXnwH8jW_r8P-71" value="" style="endArrow=none;html=1;rounded=0;exitX=1;exitY=0;exitDx=0;exitDy=0;entryX=0.5;entryY=1;entryDx=0;entryDy=0;" edge="1" parent="1" source="Edilqx2-JXnwH8jW_r8P-13" target="Edilqx2-JXnwH8jW_r8P-11">
          <mxGeometry width="50" height="50" relative="1" as="geometry">
            <mxPoint x="445" y="115" as="sourcePoint" />
            <mxPoint x="485" y="115" as="targetPoint" />
          </mxGeometry>
        </mxCell>
        <mxCell id="Edilqx2-JXnwH8jW_r8P-73" value="&lt;u&gt;id&lt;/u&gt;" style="ellipse;whiteSpace=wrap;html=1;" vertex="1" parent="1">
          <mxGeometry x="313" y="120" width="60" height="40" as="geometry" />
        </mxCell>
        <mxCell id="Edilqx2-JXnwH8jW_r8P-74" value="Comment&amp;nbsp;" style="ellipse;whiteSpace=wrap;html=1;" vertex="1" parent="1">
          <mxGeometry x="386" y="120" width="60" height="40" as="geometry" />
        </mxCell>
        <mxCell id="Edilqx2-JXnwH8jW_r8P-75" value="is Approved" style="ellipse;whiteSpace=wrap;html=1;" vertex="1" parent="1">
          <mxGeometry x="458" y="115" width="80" height="50" as="geometry" />
        </mxCell>
        <mxCell id="Edilqx2-JXnwH8jW_r8P-76" value="" style="endArrow=none;html=1;rounded=0;exitX=1;exitY=0;exitDx=0;exitDy=0;entryX=0.5;entryY=1;entryDx=0;entryDy=0;" edge="1" target="Edilqx2-JXnwH8jW_r8P-75" parent="1">
          <mxGeometry width="50" height="50" relative="1" as="geometry">
            <mxPoint x="467" y="190" as="sourcePoint" />
            <mxPoint x="272" y="205" as="targetPoint" />
          </mxGeometry>
        </mxCell>
        <mxCell id="Edilqx2-JXnwH8jW_r8P-77" value="" style="endArrow=none;html=1;rounded=0;exitX=0.5;exitY=0;exitDx=0;exitDy=0;entryX=0.5;entryY=1;entryDx=0;entryDy=0;" edge="1" target="Edilqx2-JXnwH8jW_r8P-74" parent="1">
          <mxGeometry width="50" height="50" relative="1" as="geometry">
            <mxPoint x="417" y="190" as="sourcePoint" />
            <mxPoint x="167" y="550" as="targetPoint" />
          </mxGeometry>
        </mxCell>
        <mxCell id="Edilqx2-JXnwH8jW_r8P-78" value="" style="endArrow=none;html=1;rounded=0;exitX=0.62;exitY=0.96;exitDx=0;exitDy=0;entryX=0;entryY=0;entryDx=0;entryDy=0;exitPerimeter=0;" edge="1" source="Edilqx2-JXnwH8jW_r8P-73" parent="1">
          <mxGeometry width="50" height="50" relative="1" as="geometry">
            <mxPoint x="117" y="540" as="sourcePoint" />
            <mxPoint x="367" y="190" as="targetPoint" />
          </mxGeometry>
        </mxCell>
        <mxCell id="Edilqx2-JXnwH8jW_r8P-79" value="Approve" style="rhombus;whiteSpace=wrap;html=1;" vertex="1" parent="1">
          <mxGeometry x="280" y="240" width="80" height="80" as="geometry" />
        </mxCell>
        <mxCell id="Edilqx2-JXnwH8jW_r8P-80" value="post Depending on&amp;nbsp;" style="rhombus;whiteSpace=wrap;html=1;" vertex="1" parent="1">
          <mxGeometry x="480" y="240" width="80" height="80" as="geometry" />
        </mxCell>
        <mxCell id="Edilqx2-JXnwH8jW_r8P-82" value="" style="endArrow=none;html=1;rounded=0;entryX=0;entryY=1;entryDx=0;entryDy=0;exitX=0.5;exitY=0;exitDx=0;exitDy=0;" edge="1" parent="1" source="Edilqx2-JXnwH8jW_r8P-79" target="Edilqx2-JXnwH8jW_r8P-25">
          <mxGeometry width="50" height="50" relative="1" as="geometry">
            <mxPoint x="360" y="250" as="sourcePoint" />
            <mxPoint x="410" y="200" as="targetPoint" />
          </mxGeometry>
        </mxCell>
        <mxCell id="Edilqx2-JXnwH8jW_r8P-83" value="" style="endArrow=none;html=1;rounded=0;entryX=0.5;entryY=1;entryDx=0;entryDy=0;exitX=0.5;exitY=0;exitDx=0;exitDy=0;" edge="1" parent="1" source="Edilqx2-JXnwH8jW_r8P-19" target="Edilqx2-JXnwH8jW_r8P-79">
          <mxGeometry width="50" height="50" relative="1" as="geometry">
            <mxPoint x="330" y="250" as="sourcePoint" />
            <mxPoint x="380" y="240" as="targetPoint" />
          </mxGeometry>
        </mxCell>
        <mxCell id="Edilqx2-JXnwH8jW_r8P-84" value="" style="endArrow=none;html=1;rounded=0;entryX=0.5;entryY=0;entryDx=0;entryDy=0;" edge="1" parent="1" source="Edilqx2-JXnwH8jW_r8P-26" target="Edilqx2-JXnwH8jW_r8P-19">
          <mxGeometry width="50" height="50" relative="1" as="geometry">
            <mxPoint x="340" y="260" as="sourcePoint" />
            <mxPoint x="390" y="250" as="targetPoint" />
          </mxGeometry>
        </mxCell>
        <mxCell id="Edilqx2-JXnwH8jW_r8P-85" value="" style="endArrow=none;html=1;rounded=0;exitX=0.5;exitY=1;exitDx=0;exitDy=0;" edge="1" parent="1" source="Edilqx2-JXnwH8jW_r8P-4" target="Edilqx2-JXnwH8jW_r8P-26">
          <mxGeometry width="50" height="50" relative="1" as="geometry">
            <mxPoint x="350" y="270" as="sourcePoint" />
            <mxPoint x="400" y="260" as="targetPoint" />
          </mxGeometry>
        </mxCell>
        <mxCell id="Edilqx2-JXnwH8jW_r8P-86" value="" style="endArrow=none;html=1;rounded=0;exitX=1;exitY=1;exitDx=0;exitDy=0;entryX=0.5;entryY=0;entryDx=0;entryDy=0;" edge="1" parent="1" source="Edilqx2-JXnwH8jW_r8P-25" target="Edilqx2-JXnwH8jW_r8P-80">
          <mxGeometry width="50" height="50" relative="1" as="geometry">
            <mxPoint x="360" y="280" as="sourcePoint" />
            <mxPoint x="400" y="270" as="targetPoint" />
          </mxGeometry>
        </mxCell>
        <mxCell id="Edilqx2-JXnwH8jW_r8P-87" value="" style="endArrow=none;html=1;rounded=0;entryX=0;entryY=0;entryDx=0;entryDy=0;exitX=0.5;exitY=1;exitDx=0;exitDy=0;" edge="1" parent="1" source="Edilqx2-JXnwH8jW_r8P-80" target="Edilqx2-JXnwH8jW_r8P-18">
          <mxGeometry width="50" height="50" relative="1" as="geometry">
            <mxPoint x="530" y="320" as="sourcePoint" />
            <mxPoint x="640" y="280" as="targetPoint" />
          </mxGeometry>
        </mxCell>
        <mxCell id="Edilqx2-JXnwH8jW_r8P-88" value="" style="endArrow=none;html=1;rounded=0;exitX=0.5;exitY=1;exitDx=0;exitDy=0;entryX=0.5;entryY=0;entryDx=0;entryDy=0;" edge="1" parent="1" source="Edilqx2-JXnwH8jW_r8P-27" target="Edilqx2-JXnwH8jW_r8P-18">
          <mxGeometry width="50" height="50" relative="1" as="geometry">
            <mxPoint x="380" y="300" as="sourcePoint" />
            <mxPoint x="430" y="290" as="targetPoint" />
          </mxGeometry>
        </mxCell>
        <mxCell id="Edilqx2-JXnwH8jW_r8P-89" value="" style="endArrow=none;html=1;rounded=0;entryX=0.5;entryY=1;entryDx=0;entryDy=0;exitX=0.5;exitY=0;exitDx=0;exitDy=0;" edge="1" parent="1" source="Edilqx2-JXnwH8jW_r8P-27" target="Edilqx2-JXnwH8jW_r8P-13">
          <mxGeometry width="50" height="50" relative="1" as="geometry">
            <mxPoint x="390" y="310" as="sourcePoint" />
            <mxPoint x="440" y="300" as="targetPoint" />
          </mxGeometry>
        </mxCell>
      </root>
    </mxGraphModel>
  </diagram>
</mxfile>
